<?xml version="1.0" standalone="no"?><!DOCTYPE svg PUBLIC "-//W3C//DTD SVG 1.1//EN" "http://www.w3.org/Graphics/SVG/1.1/DTD/svg11.dtd"><svg t="1546069153950" class="icon" style="" viewBox="0 0 1024 1024" version="1.1" xmlns="http://www.w3.org/2000/svg" p-id="3535" xmlns:xlink="http://www.w3.org/1999/xlink" width="64" height="64"><defs><style type="text/css"></style></defs><path d="M507.995803 377.698225c-74.200956 0-134.559649 62.370513-134.559649 139.01717 0 76.650751 60.358693 139.021264 134.559649 139.021264 74.195839 0 134.554532-62.370513 134.554532-139.021264C642.550335 440.068737 582.191642 377.698225 507.995803 377.698225zM511.954975 833.128835c-195.836247 0-369.82593-121.606639-443.253266-309.798788l-4.397147-11.356652 4.397147-11.330046c73.466222-188.19215 247.455905-309.773206 443.253266-309.773206 195.848527 0 369.864816 121.606639 443.331038 309.798788l4.41045 11.330046-4.41045 11.330046C881.858676 711.522196 707.842387 833.128835 511.954975 833.128835zM92.706425 511.974417l0.685615 1.759063c69.418023 177.922249 233.720066 292.907073 418.561911 292.907073 184.894034 0 349.222683-114.984824 418.652985-292.932656l0.660032-1.706875-0.660032-1.706875c-69.456908-177.947831-233.797837-292.932656-418.652985-292.932656-184.80296 0-349.106026 114.984824-418.575214 292.907073L92.706425 511.974417z" p-id="3536"></path></svg>